{
  "accessors": [
    {
      "bufferView": 2,
      "componentType": 5126,
      "count": 4682,
      "max": [
        4.73139762878418,
        5.899849891662598,
        5.8052263259887695
      ],
      "min": [
        -4.7313947677612305,
        0.14377737045288086,
        -5.693414211273193
      ],
      "type": "VEC3"
    },
    {
      "bufferView": 2,
      "byteOffset": 56184,
      "componentType": 5126,
      "count": 4682,
      "max": [
        0.9999716877937317,
        0.9999988079071045,
        0.9999936819076538
      ],
      "min": [
        -0.9999997019767761,
        -1.0,
        -1.0
      ],
      "type": "VEC3"
    },
    {
      "bufferView": 1,
      "componentType": 5126,
      "count": 4682,
      "max": [
        1.0,
        1.0
      ],
      "min": [
        0.0,
        0.0
      ],
      "type": "VEC2"
    },
    {
      "bufferView": 0,
      "componentType": 5125,
      "count": 20028,
      "type": "SCALAR"
    },
    {
      "bufferView": 2,
      "byteOffset": 112368,
      "componentType": 5126,
      "count": 982,
      "max": [
        4.06235408782959,
        0.9155387878417969,
        -2.0044522285461426
      ],
      "min": [
        -4.063961029052734,
        0.26746177673339844,
        -5.329793930053711
      ],
      "type": "VEC3"
    },
    {
      "bufferView": 2,
      "byteOffset": 124152,
      "componentType": 5126,
      "count": 982,
      "max": [
        0.9982501864433289,
        0.9999983310699463,
        0.999108076095581
      ],
      "min": [
        -0.9984861016273499,
        -1.0,
        -0.9972360730171204
      ],
      "type": "VEC3"
    },
    {
      "bufferView": 1,
      "byteOffset": 37456,
      "componentType": 5126,
      "count": 982,
      "max": [
        1.0,
        1.0
      ],
      "min": [
        0.0,
        0.0
      ],
      "type": "VEC2"
    },
    {
      "bufferView": 0,
      "byteOffset": 80112,
      "componentType": 5125,
      "count": 2688,
      "type": "SCALAR"
    },
    {
      "bufferView": 2,
      "byteOffset": 135936,
      "componentType": 5126,
      "count": 982,
      "max": [
        4.06235408782959,
        0.9155387878417969,
        -2.0044522285461426
      ],
      "min": [
        -4.063961029052734,
        0.26746171712875366,
        -5.329793930053711
      ],
      "type": "VEC3"
    },
    {
      "bufferView": 2,
      "byteOffset": 147720,
      "componentType": 5126,
      "count": 982,
      "max": [
        0.9984349608421326,
        0.9999988079071045,
        0.999108076095581
      ],
      "min": [
        -0.998420774936676,
        -0.999999463558197,
        -0.9972360730171204
      ],
      "type": "VEC3"
    },
    {
      "bufferView": 1,
      "byteOffset": 45312,
      "componentType": 5126,
      "count": 982,
      "max": [
        1.0,
        1.0
      ],
      "min": [
        0.0,
        0.0
      ],
      "type": "VEC2"
    },
    {
      "bufferView": 0,
      "byteOffset": 90864,
      "componentType": 5125,
      "count": 2688,
      "type": "SCALAR"
    },
    {
      "bufferView": 2,
      "byteOffset": 159504,
      "componentType": 5126,
      "count": 71,
      "max": [
        0.005558155942708254,
        1.005614161491394,
        1.0028854608535767
      ],
      "min": [
        -0.8298728466033936,
        -1.005614161491394,
        -1.0108952522277832
      ],
      "type": "VEC3"
    },
    {
      "bufferView": 2,
      "byteOffset": 160356,
      "componentType": 5126,
      "count": 71,
      "max": [
        0.01192443072795868,
        0.9999929070472717,
        0.9999895691871643
      ],
      "min": [
        -1.0,
        -0.9999929070472717,
        -0.999928891658783
      ],
      "type": "VEC3"
    },
    {
      "bufferView": 1,
      "byteOffset": 53168,
      "componentType": 5126,
      "count": 71,
      "max": [
        0.5,
        1.0
      ],
      "min": [
        0.125,
        0.0
      ],
      "type": "VEC2"
    },
    {
      "bufferView": 0,
      "byteOffset": 101616,
      "componentType": 5125,
      "count": 288,
      "type": "SCALAR"
    },
    {
      "bufferView": 2,
      "byteOffset": 161208,
      "componentType": 5126,
      "count": 71,
      "max": [
        0.005558155942708254,
        1.005614161491394,
        1.0081385374069214
      ],
      "min": [
        -0.8298728466033936,
        -1.005614161491394,
        -1.0030897855758667
      ],
      "type": "VEC3"
    },
    {
      "bufferView": 2,
      "byteOffset": 162060,
      "componentType": 5126,
      "count": 71,
      "max": [
        0.008918597362935543,
        0.9999906420707703,
        0.9999603033065796
      ],
      "min": [
        -1.0,
        -0.9999906420707703,
        -0.9999999403953552
      ],
      "type": "VEC3"
    },
    {
      "bufferView": 1,
      "byteOffset": 53736,
      "componentType": 5126,
      "count": 71,
      "max": [
        0.5,
        1.0
      ],
      "min": [
        0.125,
        0.0
      ],
      "type": "VEC2"
    },
    {
      "bufferView": 0,
      "byteOffset": 102768,
      "componentType": 5125,
      "count": 288,
      "type": "SCALAR"
    }
  ],
  "asset": {
    "extras": {
      "author": "blastro05 (https://sketchfab.com/blastro05)",
      "license": "CC-BY-4.0 (http://creativecommons.org/licenses/by/4.0/)",
      "source": "https://sketchfab.com/3d-models/space-marine-helmet-3d591ec24ac940a6a8e77ae6f6cd898f",
      "title": "Space Marine Helmet"
    },
    "generator": "Sketchfab-12.68.0",
    "version": "2.0"
  },
  "bufferViews": [
    {
      "buffer": 0,
      "byteLength": 103920,
      "name": "floatBufferViews",
      "target": 34963
    },
    {
      "buffer": 0,
      "byteLength": 54304,
      "byteOffset": 103920,
      "byteStride": 8,
      "name": "floatBufferViews",
      "target": 34962
    },
    {
      "buffer": 0,
      "byteLength": 162912,
      "byteOffset": 158224,
      "byteStride": 12,
      "name": "floatBufferViews",
      "target": 34962
    }
  ],
  "buffers": [
    {
      "byteLength": 321136,
      "uri": "scene.bin"
    }
  ],
  "materials": [
    {
      "doubleSided": true,
      "name": "lambert1",
      "pbrMetallicRoughness": {
        "baseColorFactor": [
          0.5,
          0.5,
          0.5,
          1.0
        ],
        "metallicFactor": 0.0,
        "roughnessFactor": 0.6
      }
    }
  ],
  "meshes": [
    {
      "name": "pCube1_lambert1_0",
      "primitives": [
        {
          "attributes": {
            "NORMAL": 1,
            "POSITION": 0,
            "TEXCOORD_0": 2
          },
          "indices": 3,
          "material": 0,
          "mode": 4
        }
      ]
    },
    {
      "name": "pCube2_lambert1_0",
      "primitives": [
        {
          "attributes": {
            "NORMAL": 5,
            "POSITION": 4,
            "TEXCOORD_0": 6
          },
          "indices": 7,
          "material": 0,
          "mode": 4
        }
      ]
    },
    {
      "name": "pCube3_lambert1_0",
      "primitives": [
        {
          "attributes": {
            "NORMAL": 9,
            "POSITION": 8,
            "TEXCOORD_0": 10
          },
          "indices": 11,
          "material": 0,
          "mode": 4
        }
      ]
    },
    {
      "name": "pCube4_lambert1_0",
      "primitives": [
        {
          "attributes": {
            "NORMAL": 13,
            "POSITION": 12,
            "TEXCOORD_0": 14
          },
          "indices": 15,
          "material": 0,
          "mode": 4
        }
      ]
    },
    {
      "name": "pCube5_lambert1_0",
      "primitives": [
        {
          "attributes": {
            "NORMAL": 17,
            "POSITION": 16,
            "TEXCOORD_0": 18
          },
          "indices": 19,
          "material": 0,
          "mode": 4
        }
      ]
    }
  ],
  "nodes": [
    {
      "children": [
        1
      ],
      "matrix": [
        1.0,
        0.0,
        0.0,
        0.0,
        0.0,
        2.220446049250313e-16,
        -1.0,
        0.0,
        0.0,
        1.0,
        2.220446049250313e-16,
        0.0,
        0.0,
        0.0,
        0.0,
        1.0
      ],
      "name": "Sketchfab_model"
    },
    {
      "children": [
        2
      ],
      "matrix": [
        1.0,
        0.0,
        0.0,
        0.0,
        0.0,
        0.0,
        1.0,
        0.0,
        0.0,
        -1.0,
        0.0,
        0.0,
        0.0,
        0.0,
        0.0,
        1.0
      ],
      "name": "8bd710561dcf45e39be0e67006554195.fbx"
    },
    {
      "children": [
        3,
        5,
        7,
        9,
        11,
        13
      ],
      "name": "RootNode"
    },
    {
      "children": [
        4
      ],
      "matrix": [
        1.1679588556289673,
        0.0,
        0.0,
        0.0,
        0.0,
        1.8847112655639648,
        0.0,
        0.0,
        0.0,
        0.0,
        1.10550856590271,
        0.0,
        0.9811310172080994,
        5.722347259521484,
        -0.0038153252098709345,
        1.0
      ],
      "name": "pCube1"
    },
    {
      "mesh": 0,
      "name": "pCube1_lambert1_0"
    },
    {
      "children": [
        6
      ],
      "matrix": [
        2.220446049250313e-16,
        0.0,
        1.0,
        0.0,
        0.0,
        1.0,
        0.0,
        0.0,
        -1.0,
        0.0,
        2.220446049250313e-16,
        0.0,
        0.0,
        0.0,
        -100.0999984741211,
        1.0
      ],
      "name": "back"
    },
    {
      "name": "Object_6"
    },
    {
      "children": [
        8
      ],
      "matrix": [
        1.1679588556289673,
        0.0,
        0.0,
        0.0,
        0.0,
        1.404335856437683,
        0.0,
        0.0,
        0.0,
        0.0,
        1.10550856590271,
        0.0,
        0.9811310172080994,
        5.993359088897705,
        -0.0038153252098709345,
        1.0
      ],
      "name": "pCube2"
    },
    {
      "mesh": 1,
      "name": "pCube2_lambert1_0"
    },
    {
      "children": [
        10
      ],
      "matrix": [
        1.1679588556289673,
        0.0,
        0.0,
        0.0,
        0.0,
        1.404335856437683,
        0.0,
        0.0,
        0.0,
        0.0,
        1.10550856590271,
        0.0,
        0.9811310172080994,
        6.921695232391357,
        -0.0038153252098709345,
        1.0
      ],
      "name": "pCube3"
    },
    {
      "mesh": 2,
      "name": "pCube3_lambert1_0"
    },
    {
      "children": [
        12
      ],
      "matrix": [
        0.31581718106333767,
        2.313812276517166e-15,
        -0.037300780702910916,
        0.0,
        -8.619883722170548e-15,
        1.1929599046707153,
        1.018152807381641e-15,
        0.0,
        0.13992644944758154,
        -6.841594452139529e-20,
        1.1847252520719542,
        0.0,
        -4.322361946105957,
        9.883020401000977,
        0.9758055806159973,
        1.0
      ],
      "name": "pCube4"
    },
    {
      "mesh": 3,
      "name": "pCube4_lambert1_0"
    },
    {
      "children": [
        14
      ],
      "matrix": [
        -0.31546143630842177,
        3.8632883822953533e-17,
        -0.04019853601895507,
        0.0,
        1.2762817086624422e-16,
        1.1929599046707153,
        1.4492356898162558e-16,
        0.0,
        0.1507968013571401,
        1.2762817086624422e-16,
        -1.1833907464791238,
        0.0,
        6.318087577819824,
        9.883020401000977,
        0.9455368518829346,
        1.0
      ],
      "name": "pCube5"
    },
    {
      "mesh": 4,
      "name": "pCube5_lambert1_0"
    }
  ],
  "scene": 0,
  "scenes": [
    {
      "name": "Sketchfab_Scene",
      "nodes": [
        0
      ]
    }
  ]
}
